#!OML:ASF F:\VICON\USERDATA\INSTALL\Justin_Nancy\Justin_Nancy.ASF
:FULLY-SPECIFIED
:DEGREES
65
root -6.26399 16.1981 4.0665 -4.31562 20.1172 -12.7132
lowerback 19.5947 3.25662 3.92826
upperback 4.22697 5.80177 8.05102
thorax -6.84346 2.85875 5.02825
lowerneck -18.0923 -5.41103 -8.15213
upperneck 12.9682 -5.8591 3.65303
head 7.28987 -2.88352 1.82803
rclavicle 1.31198e-014 -6.04305e-014
rhumerus -37.0117 18.2442 -84.7743
rradius 113.748
rwrist -14.0481
rhand -20.0382 27.6513
rfingers 7.12502
rthumb 6.30289 -2.23493
lclavicle 1.31198e-014 -6.04305e-014
lhumerus -47.638 0.913133 90.3406
lradius 89.018
lwrist 21.0685
lhand -22.1649 6.99799
lfingers 7.12502
lthumb 4.24955 36.9353
rfemur -9.37373 -0.917521 19.0119
rtibia 40.1595
rfoot -20.9489 -6.01201
rtoes -27.3848
lfemur -48.7566 6.25198 -13.1632
ltibia 89.0288
lfoot -9.81043 3.13662
ltoes -4.76675
66
root -6.14176 16.1809 4.63745 -4.88874 21.8056 -13.1694
lowerback 20.0344 3.41705 4.13644
upperback 4.05363 6.13025 8.14777
thorax -7.28203 3.01337 4.90902
lowerneck -18.0378 -5.57809 -8.25278
upperneck 13.4666 -6.09356 3.75701
head 7.46611 -2.99482 1.84718
rclavicle 6.16232e-014 1.30403e-013
rhumerus -35.1498 18.9982 -84.7302
rradius 113.748
rwrist -14.5352
rhand -19.266 28.5968
rfingers 7.12502
rthumb 7.04842 -1.26583
lclavicle 6.16232e-014 1.30403e-013
lhumerus -48.4115 1.23638 90.2051
lradius 89.2494
lwrist 21.3325
lhand -22.0269 6.79638
lfingers 7.12502
lthumb 4.38277 36.731
rfemur -5.41442 -1.10937 19.9437
rtibia 38.2909
rfoot -21.8588 -7.87522
rtoes -28.8843
lfemur -50.426 5.34195 -14.0249
ltibia 86.6084
lfoot -9.35756 2.84362
ltoes -4.54645
67
root -6.0075 16.1781 5.20935 -5.26122 23.3789 -13.3131
lowerback 20.2978 3.6117 4.15074
upperback 3.91618 6.42595 8.06789
thorax -7.5827 3.15296 4.71787
lowerneck -17.4777 -5.59731 -8.00616
upperneck 13.2597 -6.21494 3.68887
head 7.30047 -3.05198 1.7835
rclavicle -3.57812e-015 -1.98785e-014
rhumerus -33.3061 19.8353 -84.9569
rradius 113.438
rwrist -14.4795
rhand -19.2996 29.1857
rfingers 7.12502
rthumb 7.016 -0.677992
lclavicle -3.57812e-015 -1.98785e-014
lhumerus -48.9403 1.53942 89.9167
lradius 89.2655
lwrist 21.5288
lhand -21.481 6.18516
lfingers 7.12502
lthumb 4.90995 36.1083
rfemur -1.44808 -1.40795 20.6059
rtibia 36.1059
rfoot -21.8338 -9.39731
rtoes -30.9751
lfemur -51.7055 4.39715 -15.328
ltibia 83.6298
lfoot -9.05493 2.25093
ltoes -6.384
68
root -5.85152 16.1605 5.78608 -5.55779 24.4159 -13.6814
lowerback 20.1955 3.92109 4.48681
upperback 3.86313 6.89973 8.02219
thorax -7.57065 3.3746 4.35293
lowerneck -17.0185 -5.50842 -7.76006
upperneck 13.0433 -6.18303 3.65314
head 7.14091 -3.03195 1.74797
rclavicle 5.40694e-014 -3.97569e-014
rhumerus -31.7446 20.503 -85.0813
rradius 113.442
rwrist -14.3201
rhand -19.2816 29.8042
rfingers 7.12502
rthumb 7.03333 -0.0589523
lclavicle 5.40694e-014 -3.97569e-014
lhumerus -49.5451 1.6604 89.6479
lradius 89.4605
lwrist 21.574
lhand -19.9856 5.23396
lfingers 7.12502
lthumb 6.3537 35.1187
rfemur 2.35634 -1.44109 21.5115
rtibia 33.8583
rfoot -21.2331 -10.5272
rtoes -32.4535
lfemur -52.7915 3.74835 -16.4241
ltibia 80.3683
lfoot -9.18102 1.13265
ltoes -8.61097
69
root -5.66879 16.1573 6.3544 -5.41426 24.9317 -14.1309
lowerback 19.9706 4.36233 5.04504
upperback 3.49035 7.60726 7.95021
thorax -7.81653 3.69447 3.77636
lowerneck -16.932 -5.66976 -7.99811
upperneck 13.5506 -6.40446 3.89521
head 7.32228 -3.13123 1.83664
rclavicle -1.47101e-014 -5.24792e-014
rhumerus -30.7976 20.6795 -85.0493
rradius 113.694
rwrist -14.2454
rhand -17.9335 30.8483
rfingers 7.12502
rthumb 8.33451 1.03273
lclavicle -1.47101e-014 -5.24792e-014
lhumerus -50.9833 1.50412 89.5187
lradius 90.1645
lwrist 21.5306
lhand -18.5285 4.34422
lfingers 7.12502
lthumb 7.76025 34.1818
rfemur 5.57512 -1.36776 22.3841
rtibia 31.5687
rfoot -20.1937 -10.9234
rtoes -33.4703
lfemur -53.9915 3.46121 -17.5116
ltibia 76.7334
lfoot -9.03441 -0.321785
ltoes -9.0177
70
root -5.46944 16.1596 6.91201 -4.99705 25.2662 -14.5505
lowerback 19.7357 4.81102 5.93241
upperback 2.93949 8.37941 7.62235
thorax -8.14973 4.01809 2.72588
lowerneck -16.8935 -6.01059 -8.42372
upperneck 14.1606 -6.87599 4.41546
head 7.58079 -3.33299 2.0138
rclavicle 1.98785e-015 -2.3059e-014
rhumerus -30.436 21.1302 -85.6359
rradius 113.911
rwrist -12.0443
rhand -19.7213 30.3719
rfingers 7.12502
rthumb 6.60888 0.495058
lclavicle 1.98785e-015 -2.3059e-014
lhumerus -52.9371 0.529882 89.3073
lradius 91.4803
lwrist 21.9308
lhand -19.467 5.11048
lfingers 7.12502
lthumb 6.85437 34.9795
rfemur 8.18336 -1.36683 23.0528
rtibia 29.6449
rfoot -18.6128 -10.8664
rtoes -35.4624
lfemur -55.3162 3.2084 -18.6886
ltibia 72.8214
lfoot -8.39105 -1.69582
ltoes -9.37389
71
root -5.26713 16.1832 7.48374 -4.89238 26.1465 -15.1145
lowerback 19.4128 5.04073 6.94018
upperback 2.61912 8.848 7.24303
thorax -8.11968 4.19872 1.66376
lowerneck -17.025 -6.26554 -8.5433
upperneck 14.4617 -7.28136 4.89746
head 7.75357 -3.48519 2.13581
rclavicle 6.40087e-014 -2.94201e-014
rhumerus -29.994 21.5738 -86.408
rradius 114.357
rwrist -11.1132
rhand -20.7128 30.1081
rfingers 7.12502
rthumb 5.65165 0.203479
lclavicle 6.40087e-014 -2.94201e-014
lhumerus -54.4505 -0.633556 88.9587
lradius 92.7445
lwrist 22.2727
lhand -20.1099 5.82467
lfingers 7.12502
lthumb 6.2337 35.713
rfemur 10.8407 -1.50829 23.9515
rtibia 27.9548
rfoot -16.5703 -10.5443
rtoes -37.3712
lfemur -56.0417 2.73967 -19.8576
ltibia 68.5765
lfoot -7.52623 -3.17793
ltoes -11.1511
72
root -5.0377 16.2023 8.02979 -3.893 26.8696 -15.3407
lowerback 18.4077 5.34918 8.00965
upperback 2.18109 9.32844 6.64013
thorax -7.77152 4.39034 0.408201
lowerneck -17.3305 -6.54455 -8.60388
upperneck 14.7476 -7.69183 5.21956
head 7.94577 -3.64706 2.18977
rclavicle 2.98177e-015 7.95139e-016
rhumerus -29.6448 21.919 -87.0615
rradius 114.869
rwrist -11.0081
rhand -20.472 30.2769
rfingers 7.12502
rthumb 5.88416 0.378564
lclavicle 2.98177e-015 7.95139e-016
lhumerus -55.633 -1.41415 88.6495
lradius 93.542
lwrist 21.8383
lhand -19.2511 5.48287
lfingers 7.12502
lthumb 7.06278 35.345
rfemur 12.1784 -1.64865 24.1525
rtibia 26.5051
rfoot -13.9038 -8.88443
rtoes -38.1641
lfemur -57.1724 2.30303 -21.5407
ltibia 63.9881
lfoot -5.9123 -4.43059
ltoes -10.1859
73
root -4.79667 16.2276 8.59199 -3.60919 27.0178 -15.8419
lowerback 17.9535 5.7273 9.2145
upperback 1.8831 9.9835 6.17998
thorax -7.53626 4.66154 -0.823335
lowerneck -17.2985 -6.80859 -8.51423
upperneck 14.8139 -8.11211 5.37957
head 7.99585 -3.82569 2.1732
rclavicle 7.7526e-015 4.29375e-014
rhumerus -29.567 22.4302 -87.5977
rradius 115.271
rwrist -11.1549
rhand -20.5131 31.1352
rfingers 7.12502
rthumb 5.84447 1.2358
lclavicle 7.7526e-015 4.29375e-014
lhumerus -56.9023 -2.05106 88.3083
lradius 94.0442
lwrist 21.3774
lhand -18.897 5.07692
lfingers 7.12502
lthumb 7.4046 34.9273
rfemur 13.9962 -1.39665 24.5087
rtibia 25.2475
rfoot -10.6953 -6.57954
rtoes -38.1463
lfemur -57.2616 2.61912 -22.9121
ltibia 59.3105
lfoot -3.90511 -5.72211
ltoes -7.6292
74
root -4.56188 16.2642 9.19919 -3.33961 28.1319 -16.0027
lowerback 17.0866 5.89161 9.5672
upperback 1.60011 10.1482 5.84898
thorax -7.23508 4.73816 -1.30286
lowerneck -16.9067 -7.02097 -8.3391
upperneck 14.6082 -8.47087 5.37621
head 7.87765 -3.99379 2.10848
rclavicle -1.55052e-014 3.4191e-014
rhumerus -29.8567 23.0535 -88.1098
rradius 115.801
rwrist -11.3842
rhand -20.888 31.7715
rfingers 7.12502
rthumb 5.48246 1.86237
lclavicle -1.55052e-014 3.4191e-014
lhumerus -58.0718 -2.45457 88.1789
lradius 94.2833
lwrist 21.0687
lhand -19.8153 5.58434
lfingers 7.12502
lthumb 6.51808 35.464
rfemur 16.0175 -1.44357 24.8523
rtibia 24.0376
rfoot -6.46502 -4.76822
rtoes -37.5524
lfemur -56.7056 2.52281 -24.727
ltibia 54.6915
lfoot -1.88499 -7.60445
ltoes -6.06849
75
root -4.31274 16.3118 9.78465 -2.7482 28.7978 -15.7858
lowerback 16.2541 6.20177 9.51671
upperback 1.39039 10.4314 5.58675
thorax -6.94025 4.88784 -1.5139
lowerneck -16.9257 -7.22853 -8.73192
upperneck 14.602 -8.69893 5.60876
head 7.92471 -4.1012 2.21588
rclavicle 2.24627e-014 6.59965e-014
rhumerus -30.5025 24.1304 -88.7053
rradius 116.42
rwrist -11.3508
rhand -21.2384 31.296
rfingers 7.12502
rthumb 5.14415 1.37841
lclavicle 2.24627e-014 6.59965e-014
lhumerus -59.0049 -2.25058 88.3889
lradius 94.4415
lwrist 20.7774
lhand -21.2279 6.27591
lfingers 7.12502
lthumb 5.1543 36.1932
rfemur 17.4384 -1.31774 24.5422
rtibia 22.8697
rfoot -0.274228 -2.45421
rtoes -34.4195
lfemur -55.9441 2.78913 -26.8977
ltibia 50.3066
lfoot -0.0159023 -9.40329
ltoes -4.06837
76
root -4.07936 16.3821 10.4221 -2.50914 29.7012 -15.4182
lowerback 15.3225 6.49294 8.64633
upperback 1.45415 10.5392 5.57052
thorax -6.49701 4.9989 -0.975223
lowerneck -17.423 -7.50747 -9.46466
upperneck 15.0758 -8.97602 6.1515
head 8.25244 -4.20933 2.45612
rclavicle 3.83654e-014 -3.18055e-014
rhumerus -31.2183 25.1936 -89.1651
rradius 116.864
rwrist -10.9867
rhand -20.9764 31.1757
rfingers 7.12502
rthumb 5.39715 1.26443
lclavicle 3.83654e-014 -3.18055e-014
lhumerus -59.8044 -1.95915 88.7892
lradius 94.5883
lwrist 20.5945
lhand -21.1847 5.75831
lfingers 7.12502
lthumb 5.19604 35.6746
rfemur 19.0901 -0.58756 24.7543
rtibia 22.1157
rfoot 7.34627 -1.44819
rtoes -29.5978
lfemur -54.3735 3.48519 -29.1779
ltibia 46.4526
lfoot 1.40324 -11.1726
ltoes -1.95328
77
root -3.8286 16.452 11.0267 -2.41089 29.9571 -15.4089
lowerback 14.8918 6.81504 8.43855
upperback 1.31633 10.8803 5.43731
thorax -6.39712 5.1734 -1.01684
lowerneck -17.4804 -7.6083 -9.49923
upperneck 15.3767 -9.13732 6.26843
head 8.38475 -4.27317 2.47476
rclavicle -6.12257e-014 3.26007e-014
rhumerus -32.1864 26.0058 -89.7478
rradius 116.941
rwrist -10.798
rhand -20.2313 32.0007
rfingers 7.12502
rthumb 6.1165 2.10902
lclavicle -6.12257e-014 3.26007e-014
lhumerus -60.7633 -1.57355 88.94
lradius 94.6369
lwrist 20.2727
lhand -20.783 4.9992
lfingers 7.12502
lthumb 5.58385 34.9056
rfemur 19.6805 0.636021 25.1239
rtibia 22.6238
rfoot 14.4918 0.124635
rtoes -29.618
lfemur -52.8381 4.5444 -30.9539
ltibia 43.1631
lfoot 2.45187 -11.8307
ltoes -1.33242
78
root -3.58251 16.5027 11.6122 -2.53252 29.9558 -15.6549
lowerback 14.7477 7.0555 8.5941
upperback 1.16735 11.1988 5.20283
thorax -6.38018 5.3176 -1.38204
lowerneck -17.4382 -7.58626 -9.2809
upperneck 15.5341 -9.21689 6.47193
head 8.43682 -4.27729 2.49839
rclavicle -3.57812e-014 -1.19271e-014
rhumerus -33.1394 26.6664 -90.6432
rradius 116.889
rwrist -10.2327
rhand -20.0784 32.5285
rfingers 7.12502
rthumb 6.26416 2.64114
lclavicle -3.57812e-014 -1.19271e-014
lhumerus -61.5821 -1.05161 88.7791
lradius 94.7597
lwrist 20.1216
lhand -20.733 5.01241
lfingers 7.12502
lthumb 5.63212 34.9176
rfemur 19.6184 1.69907 25.5129
rtibia 24.2982
rfoot 18.7856 2.3327
rtoes -21.2412
lfemur -51.3321 5.73881 -32.2315
ltibia 40.735
lfoot 3.54576 -11.2151
ltoes -0.5301
79
root -3.33067 16.5198 12.173 -2.18277 30.1068 -15.5265
lowerback 14.3328 7.14126 8.47264
upperback 0.981729 11.2328 4.89578
thorax -6.30635 5.33386 -1.59593
lowerneck -17.4622 -7.52493 -9.3932
upperneck 15.6673 -9.21622 7.00097
head 8.51936 -4.22916 2.69368
rclavicle 7.15625e-014 3.73715e-014
rhumerus -34.0686 27.368 -91.6061
rradius 116.617
rwrist -9.21492
rhand -19.3939 32.9924
rfingers 7.12502
rthumb 6.92489 3.12562
lclavicle 7.15625e-014 3.73715e-014
lhumerus -62.3367 -0.447353 88.7142
lradius 95.1911
lwrist 20.5658
lhand -20.6037 5.07856
lfingers 7.12502
lthumb 5.75699 34.9804
rfemur 18.5041 2.04384 25.1418
rtibia 27.5289
rfoot 19.8465 5.48345
rtoes -13.7133
lfemur -50.1431 6.5488 -33.6844
ltibia 39.1498
lfoot 5.0638 -9.55201
ltoes 2.03386
